<svg width="34" height="34" viewBox="0 0 34 34" fill="none" xmlns="http://www.w3.org/2000/svg">
<path d="M0 17C0 7.61116 7.61116 0 17 0V0C26.3888 0 34 7.61116 34 17V17C34 26.3888 26.3888 34 17 34V34C7.61116 34 0 26.3888 0 17V17Z" fill="#49ACB9"/>
<path d="M7 16C6.44772 16 6 16.4477 6 17C6 17.5523 6.44772 18 7 18V16ZM25.7071 17.7071C26.0976 17.3166 26.0976 16.6834 25.7071 16.2929L19.3431 9.92893C18.9526 9.53841 18.3195 9.53841 17.9289 9.92893C17.5384 10.3195 17.5384 10.9526 17.9289 11.3431L23.5858 17L17.9289 22.6569C17.5384 23.0474 17.5384 23.6805 17.9289 24.0711C18.3195 24.4616 18.9526 24.4616 19.3431 24.0711L25.7071 17.7071ZM7 18H25V16H7V18Z" fill="white"/>
</svg>
